<svg xmlns="http://www.w3.org/2000/svg" viewBox="0 0 564.92 531.89"><defs><style>.cls-1{fill:#fff;}</style></defs><g id="Layer_2" data-name="Layer 2"><g id="Layer_1-2" data-name="Layer 1"><polygon class="cls-1" points="150.94 101 198.21 101 224.69 73.26 105.53 73.26 92.28 87.15 45 87.15 31.76 101 79.06 101 150.94 101"/><polygon class="cls-1" points="135.06 137.63 182.33 137.63 208.8 109.89 89.64 109.89 76.4 123.78 29.11 123.78 15.88 137.63 63.18 137.63 135.06 137.63"/><polygon class="cls-1" points="166.82 64.36 214.09 64.36 240.57 36.63 121.41 36.63 108.16 50.51 60.88 50.51 47.65 64.36 94.94 64.36 166.82 64.36"/><polygon class="cls-1" points="121.42 320.84 240.57 320.84 214.1 293.1 166.82 293.1 94.94 293.1 47.65 293.1 60.88 306.96 108.17 306.96 121.42 320.84"/><polygon class="cls-1" points="72.12 329.73 98.61 357.46 164.78 357.46 178.04 343.59 225.37 343.59 238.59 329.73 72.12 329.73"/><polygon class="cls-1" points="490.56 329.73 464.08 357.46 397.9 357.46 384.64 343.59 337.32 343.59 324.1 329.73 490.56 329.73"/><polygon class="cls-1" points="72.12 27.73 98.61 0 164.78 0 178.04 13.86 225.37 13.86 238.59 27.73 72.12 27.73"/><polygon class="cls-1" points="490.56 27.73 464.08 0 397.9 0 384.64 13.86 337.32 13.86 324.1 27.73 490.56 27.73"/><polygon class="cls-1" points="105.53 284.21 224.69 284.21 198.22 256.47 150.94 256.47 79.06 256.47 31.77 256.47 45 270.32 92.28 270.32 105.53 284.21"/><polygon class="cls-1" points="89.65 247.57 208.8 247.57 182.33 219.83 135.06 219.83 63.18 219.83 15.88 219.83 29.11 233.69 76.4 233.69 89.65 247.57"/><polygon class="cls-1" points="413.98 101 366.71 101 340.24 73.26 459.4 73.26 472.64 87.15 519.93 87.15 533.16 101 485.86 101 413.98 101"/><polygon class="cls-1" points="429.87 137.63 382.6 137.63 356.12 109.89 475.28 109.89 488.53 123.78 535.82 123.78 549.04 137.63 501.75 137.63 429.87 137.63"/><polygon class="cls-1" points="398.11 64.36 350.83 64.36 324.36 36.63 443.52 36.63 456.76 50.51 504.05 50.51 517.28 64.36 469.98 64.36 398.11 64.36"/><polygon class="cls-1" points="551.7 160.4 504.4 160.4 491.17 146.55 315.18 146.55 249.74 146.55 73.76 146.55 60.52 160.4 13.22 160.4 0 174.26 249.74 174.26 315.18 174.26 564.92 174.26 551.7 160.4"/><polygon class="cls-1" points="443.51 320.84 324.36 320.84 350.82 293.1 398.11 293.1 469.98 293.1 517.28 293.1 504.04 306.96 456.75 306.96 443.51 320.84"/><polygon class="cls-1" points="315.18 183.21 249.74 183.21 0 183.21 13.23 197.07 60.53 197.07 73.76 210.92 249.74 210.92 315.18 210.92 491.17 210.92 504.4 197.07 551.69 197.07 564.92 183.21 315.18 183.21"/><polygon class="cls-1" points="459.4 284.21 340.24 284.21 366.71 256.47 413.98 256.47 485.86 256.47 533.16 256.47 519.93 270.32 472.64 270.32 459.4 284.21"/><polygon class="cls-1" points="475.27 247.57 356.12 247.57 382.59 219.83 429.87 219.83 501.75 219.83 549.04 219.83 535.81 233.69 488.53 233.69 475.27 247.57"/><path class="cls-1" d="M96.63,438.51h19.09v34.37h35.51V438.51h19v90.86h-19V488.68H115.72v40.69H96.63Z"/><path class="cls-1" d="M185.22,438.51h66.85v16.05H203.79v19.33h44.36v15.92H203.79v23.51h50.3v16H185.22Z"/><path class="cls-1" d="M270.52,438.51H289.6v90.86H270.52Z"/><path class="cls-1" d="M304.64,438.51h46.12q9.36,0,15.67,3.53A24.91,24.91,0,0,1,379.2,463.9a26.94,26.94,0,0,1-1.77,9.61,20.83,20.83,0,0,1-4.8,7.71,19.8,19.8,0,0,1-7.46,4.68q7.2,2.27,9.22,7.32a34.25,34.25,0,0,1,2.15,12.89v3.8l-.25,4.17a31,31,0,0,0,1.14,9.09,4.49,4.49,0,0,0,3.28,3.67v2.53h-21a34,34,0,0,1-1.52-6.7l-.51-8-.25-8.09a26.6,26.6,0,0,0-.25-3.79c-.09-.51-.3-1.44-.63-2.78l-.26-.76a7.33,7.33,0,0,0-3.54-3.92c-2-1-5.13-1.52-9.35-1.52H323.21v35.52H304.64Zm42.21,40.05q7.44,0,10.48-3.28a14.57,14.57,0,0,0,2.91-9.35,12.56,12.56,0,0,0-2.91-8.22q-3-3.4-10-3.41H323.21v24.26Z"/><path class="cls-1" d="M412.05,501.44a12.65,12.65,0,0,0,2.66,8.21,14.45,14.45,0,0,0,6.57,4.93A24.62,24.62,0,0,0,430,516.1q20,0,20-11.12,0-4.19-2-6.19a12.12,12.12,0,0,0-4.8-3l-9.6-2.65-8.72-2a68,68,0,0,1-15.55-4.68,24,24,0,0,1-10.11-8.21q-3.92-5.44-3.91-14.54a26.58,26.58,0,0,1,4.17-14.53,24,24,0,0,1,11.75-9.73,46.52,46.52,0,0,1,18.32-3.29,47.66,47.66,0,0,1,16.94,2.66q7.32,2.78,11.12,6.95a28.73,28.73,0,0,1,5.81,9.47A47,47,0,0,1,465,460.5a23.61,23.61,0,0,1,.51,4.92h-18.2q-1.26-13.51-18.95-13.52a22,22,0,0,0-10.87,2.66q-4.82,2.65-4.81,7.7,0,7.08,7.21,9.36l12.89,3.15,8.84,2.28q10.36,2.4,15.8,5.18a21.12,21.12,0,0,1,8.09,7.45q2.78,4.68,2.78,12.51,0,9.24-4.05,15.42a27.78,27.78,0,0,1-10.36,9.23,42.29,42.29,0,0,1-11.25,4c-1.76.34-3.37.59-4.8.76h-.38c-1.85.17-3.16.25-3.91.25q-19.59,0-29.57-7.71-10.25-7.83-10.24-22.74Z"/></g></g></svg>