<?xml version="1.0" encoding="UTF-8"?>
<svg width="565px" height="532px" viewBox="0 0 565 532" version="1.1" xmlns="http://www.w3.org/2000/svg" xmlns:xlink="http://www.w3.org/1999/xlink">
    <title>Heirs Entertainment-logo</title>
    <g id="Page-1" stroke="none" stroke-width="1" fill="none" fill-rule="evenodd">
        <path d="M117.239258,529 L117.239258,488.517578 L152.676758,488.517578 L152.676758,529 L171.50293,529 L171.50293,438.314453 L152.676758,438.314453 L152.676758,472.890625 L117.239258,472.890625 L117.239258,438.314453 L98.4746094,438.314453 L98.4746094,529 L117.239258,529 Z M258.866211,529 L258.866211,512.696289 L208.663086,512.696289 L208.663086,489.378906 L252.713867,489.378906 L252.713867,473.628906 L208.663086,473.628906 L208.663086,454.37207 L256.651367,454.37207 L256.651367,438.314453 L190.144531,438.314453 L190.144531,529 L258.866211,529 Z M290.981445,529 L290.981445,438.314453 L272.155273,438.314453 L272.155273,529 L290.981445,529 Z M327.587891,529 L327.587891,493.439453 L347.152344,493.439453 C352.730469,493.439453 356.534668,494.40332 358.564941,496.331055 C360.595215,498.258789 361.651367,502.114258 361.733398,507.897461 L361.733398,507.897461 L361.856445,516.326172 C361.897461,518.992188 362.164062,521.59668 362.65625,524.139648 C362.902344,525.370117 363.3125,526.990234 363.886719,529 L363.886719,529 L384.743164,529 L384.743164,526.723633 C382.938477,525.616211 381.790039,523.893555 381.297852,521.555664 C380.969727,520.079102 380.805664,517.269531 380.805664,513.126953 L380.805664,513.126953 L380.805664,507.036133 C380.805664,500.678711 379.934082,495.95166 378.190918,492.85498 C376.447754,489.758301 373.484375,487.369141 369.300781,485.6875 C374.304688,483.964844 377.893555,481.021973 380.067383,476.858887 C382.241211,472.695801 383.328125,468.460938 383.328125,464.154297 C383.328125,460.585938 382.753906,457.407227 381.605469,454.618164 C380.457031,451.829102 378.898438,449.286133 376.929688,446.989258 C374.550781,444.200195 371.648926,442.087891 368.224121,440.652344 C364.799316,439.216797 359.908203,438.4375 353.550781,438.314453 L353.550781,438.314453 L309.069336,438.314453 L309.069336,529 L327.587891,529 Z M349.05957,478.427734 L327.587891,478.427734 L327.587891,454.064453 L349.613281,454.064453 C353.714844,454.064453 356.791016,454.597656 358.841797,455.664062 C362.492188,457.550781 364.317383,461.242188 364.317383,466.738281 C364.317383,471.824219 362.430664,475.228516 358.657227,476.951172 C356.524414,477.935547 353.325195,478.427734 349.05957,478.427734 L349.05957,478.427734 Z M431.624023,435.668945 C441.180664,435.668945 449.33252,438.20166 456.07959,443.26709 C462.82666,448.33252 466.364258,455.68457 466.692383,465.323242 L466.692383,465.323242 L448.481445,465.323242 L448.453776,464.926908 C448.036056,459.680031 445.666373,455.936166 441.344727,453.695312 C438.391602,452.177734 434.720703,451.418945 430.332031,451.418945 C425.451172,451.418945 421.554688,452.40332 418.642578,454.37207 C415.730469,456.34082 414.274414,459.088867 414.274414,462.616211 C414.274414,465.856445 415.709961,468.276367 418.581055,469.875977 C420.426758,470.942383 424.364258,472.193359 430.393555,473.628906 L430.393555,473.628906 L446.020508,477.381836 L446.678124,477.542335 C453.201785,479.164607 458.150548,481.305444 461.524414,483.964844 C466.938477,488.230469 469.645508,494.40332 469.645508,502.483398 C469.645508,510.768555 466.477051,517.648926 460.140137,523.124512 C453.803223,528.600098 444.851562,531.337891 433.285156,531.337891 C421.472656,531.337891 412.182617,528.641113 405.415039,523.247559 C398.647461,517.854004 395.263672,510.44043 395.263672,501.006836 L395.263672,501.006836 L413.351562,501.006836 L413.423127,501.498925 C414.016902,505.395475 415.120977,508.328125 416.735352,510.296875 C419.811523,514.029297 425.082031,515.895508 432.546875,515.895508 C437.017578,515.895508 440.647461,515.40332 443.436523,514.418945 C448.727539,512.532227 451.373047,509.025391 451.373047,503.898438 C451.373047,500.904297 450.060547,498.586914 447.435547,496.946289 C444.810547,495.34668 440.688477,493.931641 435.069336,492.701172 L435.069336,492.701172 L425.47168,490.547852 L424.847088,490.405391 C415.74968,488.311953 409.436393,486.042057 405.907227,483.595703 C399.795898,479.412109 396.740234,472.870117 396.740234,463.969727 C396.740234,455.848633 399.693359,449.101562 405.599609,443.728516 C411.505859,438.355469 420.180664,435.668945 431.624023,435.668945 Z M238.59,329.73 L225.37,343.59 L178.04,343.59 L164.78,357.46 L98.61,357.46 L72.12,329.73 L238.59,329.73 Z M490.56,329.73 L464.08,357.46 L397.9,357.46 L384.64,343.59 L337.32,343.59 L324.1,329.73 L490.56,329.73 Z M214.1,293.1 L240.57,320.84 L121.42,320.84 L108.17,306.96 L60.88,306.96 L47.65,293.1 L214.1,293.1 Z M517.28,293.1 L504.04,306.96 L456.75,306.96 L443.51,320.84 L324.36,320.84 L350.82,293.1 L517.28,293.1 Z M198.22,256.47 L224.69,284.21 L105.53,284.21 L92.28,270.32 L45,270.32 L31.77,256.47 L198.22,256.47 Z M533.16,256.47 L519.93,270.32 L472.64,270.32 L459.4,284.21 L340.24,284.21 L366.71,256.47 L533.16,256.47 Z M182.33,219.83 L208.8,247.57 L89.65,247.57 L76.4,233.69 L29.11,233.69 L15.88,219.83 L182.33,219.83 Z M549.04,219.83 L535.81,233.69 L488.53,233.69 L475.27,247.57 L356.12,247.57 L382.59,219.83 L549.04,219.83 Z M564.92,183 L551.69,196.86 L504.4,196.86 L491.17,210.71 L73.76,210.71 L60.53,196.86 L13.23,196.86 L0,183 L564.92,183 Z M491.17,146.55 L504.4,160.4 L551.7,160.4 L564.92,174.26 L0,174.26 L13.22,160.4 L60.52,160.4 L73.76,146.55 L491.17,146.55 Z M208.8,109.89 L182.33,137.63 L15.88,137.63 L29.11,123.78 L76.4,123.78 L89.64,109.89 L208.8,109.89 Z M475.28,109.89 L488.53,123.78 L535.82,123.78 L549.04,137.63 L382.6,137.63 L356.12,109.89 L475.28,109.89 Z M224.69,73.26 L198.21,101 L31.76,101 L45,87.15 L92.28,87.15 L105.53,73.26 L224.69,73.26 Z M459.4,73.26 L472.64,87.15 L519.93,87.15 L533.16,101 L366.71,101 L340.24,73.26 L459.4,73.26 Z M240.57,36.63 L214.09,64.36 L47.65,64.36 L60.88,50.51 L108.16,50.51 L121.41,36.63 L240.57,36.63 Z M443.52,36.63 L456.76,50.51 L504.05,50.51 L517.28,64.36 L350.83,64.36 L324.36,36.63 L443.52,36.63 Z M164.78,0 L178.04,13.86 L225.37,13.86 L238.59,27.73 L72.12,27.73 L98.61,0 L164.78,0 Z M464.08,0 L490.56,27.73 L324.1,27.73 L337.32,13.86 L384.64,13.86 L397.9,0 L464.08,0 Z" id="heirs-logo" fill="#FFFFFF" fill-rule="nonzero"></path>
    </g>
</svg>