<?xml version="1.0" encoding="UTF-8"?>
<svg width="655px" height="534px" viewBox="0 0 655 534" version="1.1" xmlns="http://www.w3.org/2000/svg" xmlns:xlink="http://www.w3.org/1999/xlink">
    <title>logo-heirs</title>
    <g id="Page-1" stroke="none" stroke-width="1" fill="none" fill-rule="evenodd">
        <g id="logo-heirs">
            <path d="M163.239258,531 L163.239258,490.517578 L198.676758,490.517578 L198.676758,531 L217.50293,531 L217.50293,440.314453 L198.676758,440.314453 L198.676758,474.890625 L163.239258,474.890625 L163.239258,440.314453 L144.474609,440.314453 L144.474609,531 L163.239258,531 Z M304.866211,531 L304.866211,514.696289 L254.663086,514.696289 L254.663086,491.378906 L298.713867,491.378906 L298.713867,475.628906 L254.663086,475.628906 L254.663086,456.37207 L302.651367,456.37207 L302.651367,440.314453 L236.144531,440.314453 L236.144531,531 L304.866211,531 Z M336.981445,531 L336.981445,440.314453 L318.155273,440.314453 L318.155273,531 L336.981445,531 Z M373.587891,531 L373.587891,495.439453 L393.152344,495.439453 C398.730469,495.439453 402.534668,496.40332 404.564941,498.331055 C406.595215,500.258789 407.651367,504.114258 407.733398,509.897461 L407.733398,509.897461 L407.856445,518.326172 C407.897461,520.992188 408.164062,523.59668 408.65625,526.139648 C408.902344,527.370117 409.3125,528.990234 409.886719,531 L409.886719,531 L430.743164,531 L430.743164,528.723633 C428.938477,527.616211 427.790039,525.893555 427.297852,523.555664 C426.969727,522.079102 426.805664,519.269531 426.805664,515.126953 L426.805664,515.126953 L426.805664,509.036133 C426.805664,502.678711 425.934082,497.95166 424.190918,494.85498 C422.447754,491.758301 419.484375,489.369141 415.300781,487.6875 C420.304688,485.964844 423.893555,483.021973 426.067383,478.858887 C428.241211,474.695801 429.328125,470.460938 429.328125,466.154297 C429.328125,462.585938 428.753906,459.407227 427.605469,456.618164 C426.457031,453.829102 424.898438,451.286133 422.929688,448.989258 C420.550781,446.200195 417.648926,444.087891 414.224121,442.652344 C410.799316,441.216797 405.908203,440.4375 399.550781,440.314453 L399.550781,440.314453 L355.069336,440.314453 L355.069336,531 L373.587891,531 Z M395.05957,480.427734 L373.587891,480.427734 L373.587891,456.064453 L395.613281,456.064453 C399.714844,456.064453 402.791016,456.597656 404.841797,457.664062 C408.492188,459.550781 410.317383,463.242188 410.317383,468.738281 C410.317383,473.824219 408.430664,477.228516 404.657227,478.951172 C402.524414,479.935547 399.325195,480.427734 395.05957,480.427734 L395.05957,480.427734 Z M479.285156,533.337891 C490.851562,533.337891 499.803223,530.600098 506.140137,525.124512 C512.477051,519.648926 515.645508,512.768555 515.645508,504.483398 C515.645508,496.40332 512.938477,490.230469 507.524414,485.964844 C504.038086,483.216797 498.870117,481.022461 492.020508,479.381836 L492.020508,479.381836 L476.393555,475.628906 C470.364258,474.193359 466.426758,472.942383 464.581055,471.875977 C461.709961,470.276367 460.274414,467.856445 460.274414,464.616211 C460.274414,461.088867 461.730469,458.34082 464.642578,456.37207 C467.554688,454.40332 471.451172,453.418945 476.332031,453.418945 C480.720703,453.418945 484.391602,454.177734 487.344727,455.695312 C491.774414,457.992188 494.15332,461.868164 494.481445,467.323242 L494.481445,467.323242 L512.692383,467.323242 C512.364258,457.68457 508.82666,450.33252 502.07959,445.26709 C495.33252,440.20166 487.180664,437.668945 477.624023,437.668945 C466.180664,437.668945 457.505859,440.355469 451.599609,445.728516 C445.693359,451.101562 442.740234,457.848633 442.740234,465.969727 C442.740234,474.870117 445.795898,481.412109 451.907227,485.595703 C455.516602,488.097656 462.038086,490.415039 471.47168,492.547852 L471.47168,492.547852 L481.069336,494.701172 C486.688477,495.931641 490.810547,497.34668 493.435547,498.946289 C496.060547,500.586914 497.373047,502.904297 497.373047,505.898438 C497.373047,511.025391 494.727539,514.532227 489.436523,516.418945 C486.647461,517.40332 483.017578,517.895508 478.546875,517.895508 C471.082031,517.895508 465.811523,516.029297 462.735352,512.296875 C461.053711,510.246094 459.925781,507.149414 459.351562,503.006836 L459.351562,503.006836 L441.263672,503.006836 C441.263672,512.44043 444.647461,519.854004 451.415039,525.247559 C458.182617,530.641113 467.472656,533.337891 479.285156,533.337891 Z" id="HEIRS" fill="#FFFFFF" fill-rule="nonzero"></path>
            <path d="M119,333 L146,361 L98,361 L71,333 L119,333 Z M153,310 L166,324 L121,324 L108,310 L153,310 Z M92,296 L105,310 L60,310 L47,296 L92,296 Z M137,273 L150,287 L105,287 L92,273 L137,273 Z M76,259 L89,273 L44,273 L31,259 L76,259 Z M122,236 L135,250 L90,250 L77,236 L122,236 Z M61,222 L74,236 L29,236 L16,222 L61,222 Z M106,199 L119,213 L74,213 L61,199 L106,199 Z M45,185 L58,199 L13,199 L0,185 L45,185 Z M58,162 L45,176 L0,176 L13,162 L58,162 Z M119,148 L106,162 L61,162 L74,148 L119,148 Z M74,125 L61,139 L16,139 L29,125 L74,125 Z M135,111 L122,125 L77,125 L90,111 L135,111 Z M89,88 L76,102 L31,102 L44,88 L89,88 Z M150,74 L137,88 L92,88 L105,74 L150,74 Z M105,51 L92,65 L47,65 L60,51 L105,51 Z M166,37 L153,51 L108,51 L121,37 L166,37 Z M146,0 L119,28 L71,28 L98,0 L146,0 Z" id="blue" fill="#2B69A8"></path>
            <path d="M584,333 L557,361 L509,361 L536,333 L584,333 Z M547,310 L534,324 L489,324 L502,310 L547,310 Z M608,296 L595,310 L550,310 L563,296 L608,296 Z M563,273 L550,287 L505,287 L518,273 L563,273 Z M624,259 L611,273 L566,273 L579,259 L624,259 Z M578,236 L565,250 L520,250 L533,236 L578,236 Z M639,222 L626,236 L581,236 L594,222 L639,222 Z M594,199 L581,213 L536,213 L549,199 L594,199 Z M655,185 L642,199 L597,199 L610,185 L655,185 Z M642,162 L655,176 L610,176 L597,162 L642,162 Z M581,148 L594,162 L549,162 L536,148 L581,148 Z M626,125 L639,139 L594,139 L581,125 L626,125 Z M565,111 L578,125 L533,125 L520,111 L565,111 Z M611,88 L624,102 L579,102 L566,88 L611,88 Z M550,74 L563,88 L518,88 L505,74 L550,74 Z M595,51 L608,65 L563,65 L550,51 L595,51 Z M534,37 L547,51 L502,51 L489,37 L534,37 Z M557,0 L584,28 L536,28 L509,0 L557,0 Z" id="red" fill="#E33D25"></path>
            <path d="M536,333 L509,361 L443,361 L430,347 L383,347 L370,333 L536,333 Z M285,333 L272,347 L225,347 L212,361 L146,361 L119,333 L285,333 Z M563,296 L550,310 L502,310 L489,324 L370,324 L396,296 L563,296 Z M259,296 L285,324 L166,324 L153,310 L105,310 L92,296 L259,296 Z M579,259 L566,273 L518,273 L505,287 L386,287 L412,259 L579,259 Z M243,259 L269,287 L150,287 L137,273 L89,273 L76,259 L243,259 Z M594,222 L581,236 L533,236 L520,250 L401,250 L427,222 L594,222 Z M228,222 L254,250 L135,250 L122,236 L74,236 L61,222 L228,222 Z M610,185 L597,199 L549,199 L536,213 L417,213 L443,185 L610,185 Z M212,185 L238,213 L119,213 L106,199 L58,199 L45,185 L212,185 Z M536,148 L549,162 L597,162 L610,176 L45,176 L58,162 L106,162 L119,148 L536,148 Z M520,111 L533,125 L581,125 L594,139 L427,139 L401,111 L520,111 Z M254,111 L228,139 L61,139 L74,125 L122,125 L135,111 L254,111 Z M505,74 L518,88 L566,88 L579,102 L412,102 L386,74 L505,74 Z M269,74 L243,102 L76,102 L89,88 L137,88 L150,74 L269,74 Z M489,37 L502,51 L550,51 L563,65 L396,65 L370,37 L489,37 Z M285,37 L259,65 L92,65 L105,51 L153,51 L166,37 L285,37 Z M509,0 L536,28 L370,28 L383,14 L430,14 L443,0 L509,0 Z M212,0 L225,14 L272,14 L285,28 L119,28 L146,0 L212,0 Z" id="white" fill="#FFFFFF"></path>
        </g>
    </g>
</svg>